<svg version="1.1" preserveAspectRatio="none" xmlns="http://www.w3.org/2000/svg" width="500" height="500" viewBox="0 0 500 500"><rect width="100%" height="100%" fill="#212D94" fill-opacity="1"/><svg viewBox="23.4955 175.131 490.4761 190" width="333" height="128.9971111742244" x="83.5px" y="185.5014px" xmlns="http://www.w3.org/2000/svg" xmlns:xlink="http://www.w3.org/1999/xlink" preserveAspectRatio="none"><defs></defs><style>.a60p5ZquTEfillColor {fill:#F1F1F1;fill-opacity:0;}.ahs7pIl34ofillColor {fill:#0A0A0A;fill-opacity:0.1;}.background {fill:#212D94;fill-opacity:1;}.companyName {fill:#F1F1F1;fill-opacity:1;}.icon3-str {stroke:#0A0A0A;stroke-opacity:1;}.shapeStroke-str {stroke:#0A0A0A;stroke-opacity:1;}.text-str {stroke:#F1F1F1;stroke-opacity:1;}</style><g opacity="1" transform="rotate(0 23.4955 175.131)">
<svg width="245.238" height="190" x="23.4955" y="175.131" version="1.1" preserveAspectRatio="none" viewBox="0 0 245.238 190">
  <defs><rect x="11.875" y="11.875" width="221.488" height="166.25" rx="0px" ry="0px" id="id-60p5ZquTE1679033686801"></rect></defs><use class="a60p5ZquTEfillColor text-str" style="stroke-width:23.75;" xlink:href="#id-60p5ZquTE1679033686801"></use>
</svg>
</g><g opacity="1" transform="rotate(0 268.7336 175.131)">
<svg width="245.238" height="190" x="268.7336" y="175.131" version="1.1" preserveAspectRatio="none" viewBox="0 0 245.238 190">
  <defs><rect x="11.875" y="11.875" width="221.488" height="166.25" rx="0px" ry="0px" id="id-hs7pIl34o1679033686801"></rect></defs><use class="ahs7pIl34ofillColor icon3-str" style="stroke-width:23.75;" xlink:href="#id-hs7pIl34o1679033686801"></use>
</svg>
</g><g opacity="1" transform="rotate(0 33.4955 185.131)">
<svg width="470.4761" height="170" x="33.4955" y="185.131" version="1.1" preserveAspectRatio="none" viewBox="0 0 470.4761 170">
  <defs><rect x="0" y="0" width="470.4761" height="170" rx="0px" ry="0px" id="id-BO9lbzKc31679033686801"></rect></defs><use class="background shapeStroke-str" style="stroke-width:0;" xlink:href="#id-BO9lbzKc31679033686801"></use>
</svg>
</g><g opacity="1" transform="rotate(0 73.4955 235.131)">
<svg width="390.4761" height="70" x="73.4955" y="235.131" version="1.1" preserveAspectRatio="none" viewBox="4 -31.2 221.12 39.64">
  <g transform="matrix(1 0 0 1 0 0)" class="companyName"><path id="id-D6z1nYkh10" d="M4-29.12L23.32-29.12L23.32-24.64L8.68-24.64L8.68-16.88L21.72-16.88L21.72-12.40L8.68-12.40L8.68-4.48L23.88-4.48L23.88 0L4 0L4-29.12Z M30.48-10.80L37.96-10.80L37.96-6.88L30.48-6.88L30.48-10.80Z M68.12-2.28Q66.84-1.36 64.58-0.52Q62.32 0.32 59.64 0.32L59.64 0.32Q55.12 0.32 51.74-1.66Q48.36-3.64 46.54-6.98Q44.72-10.32 44.72-14.32L44.72-14.32Q44.72-18.68 46.54-22.12Q48.36-25.56 51.62-27.50Q54.88-29.44 59.04-29.44L59.04-29.44Q61.60-29.44 63.78-28.76Q65.96-28.08 67.64-27.04L67.64-27.04L65.80-22.68Q62.56-24.96 59.20-24.96L59.20-24.96Q56.64-24.96 54.42-23.58Q52.20-22.20 50.88-19.82Q49.56-17.44 49.56-14.60L49.56-14.60Q49.56-11.60 50.78-9.22Q52-6.84 54.26-5.50Q56.52-4.16 59.48-4.16L59.48-4.16Q61.60-4.16 63.30-4.80Q65-5.44 66.16-6.44L66.16-6.44L68.12-2.28Z M86.44-17.64Q88.80-17.64 90.38-16.22Q91.96-14.80 92-12.56L92-12.56L92 0L87.52 0L87.52-10.96Q87.44-12.28 86.74-13.04Q86.04-13.80 84.64-13.84L84.64-13.84Q82.56-13.84 81.22-12.04Q79.88-10.24 79.88-7.52L79.88-7.52L79.88 0L75.40 0L75.40-31.20L79.80-31.20L79.80-14.04Q80.76-15.68 82.46-16.66Q84.16-17.64 86.44-17.64L86.44-17.64Z M113.76-16.92L117.88-16.92L117.88 0L113.40 0L113.40-2.44Q112.48-1.36 110.92-0.46Q109.36 0.44 107.28 0.44L107.28 0.44Q104.84 0.44 102.92-0.58Q101.00-1.60 99.88-3.60Q98.76-5.60 98.76-8.44L98.76-8.44Q98.76-11.20 99.92-13.30Q101.08-15.40 103.02-16.54Q104.96-17.68 107.28-17.68L107.28-17.68Q111.40-17.68 113.44-14.64L113.44-14.64L113.76-16.92ZM108.52-3.24Q110.36-3.24 111.62-4.18Q112.88-5.12 113.40-6.84L113.40-6.84L113.40-10.52Q112.92-12.08 111.54-13.04Q110.16-14 108.36-14L108.36-14Q106.24-14 104.76-12.50Q103.28-11 103.28-8.68L103.28-8.68Q103.28-7.16 104.00-5.92Q104.72-4.68 105.92-3.96Q107.12-3.24 108.52-3.24L108.52-3.24Z M130.44-13Q131.12-14.36 132.36-15.44Q133.60-16.52 134.90-17.10Q136.20-17.68 137.08-17.68L137.08-17.68L136.88-13.20Q135.04-13.36 133.60-12.54Q132.16-11.72 131.36-10.30Q130.56-8.88 130.56-7.28L130.56-7.28L130.56 0L126.08 0L126.08-16.92L130.12-16.92L130.44-13Z M157.12-16.92L161.24-16.92L161.24 0.08Q161.24 2.44 159.98 4.34Q158.72 6.24 156.46 7.34Q154.20 8.44 151.36 8.44L151.36 8.44Q148.60 8.44 146.76 7.58Q144.92 6.72 143.04 5.08L143.04 5.08L145.68 2Q146.96 3.20 148.28 3.86Q149.60 4.52 151.28 4.52L151.28 4.52Q153.76 4.52 155.24 3.30Q156.72 2.08 156.76 0L156.76 0L156.76-2.84Q155.88-1.36 154.14-0.46Q152.40 0.44 150.08 0.44L150.08 0.44Q147.76 0.44 145.80-0.74Q143.84-1.92 142.68-3.98Q141.52-6.04 141.52-8.56L141.52-8.56Q141.52-11.12 142.74-13.22Q143.96-15.32 145.98-16.50Q148.00-17.68 150.28-17.68L150.28-17.68Q152.40-17.68 154.14-16.94Q155.88-16.20 156.76-15L156.76-15L157.12-16.92ZM151.40-3.24Q153.36-3.24 154.78-4.20Q156.20-5.16 156.76-6.80L156.76-6.80L156.76-10.48Q156.20-12.08 154.76-13.04Q153.32-14 151.40-14L151.40-14Q149.12-14 147.58-12.50Q146.04-11 146.04-8.68L146.04-8.68Q146.04-7.16 146.76-5.92Q147.48-4.68 148.70-3.96Q149.92-3.24 151.40-3.24L151.40-3.24Z M169.40-16.92L173.88-16.92L173.88 0L169.40 0L169.40-16.92ZM169.20-22.96Q169.20-23.96 170.00-24.66Q170.80-25.36 171.80-25.36L171.80-25.36Q172.76-25.36 173.54-24.66Q174.32-23.96 174.32-22.96L174.32-22.96Q174.32-21.96 173.54-21.28Q172.76-20.60 171.80-20.60L171.80-20.60Q170.80-20.60 170.00-21.28Q169.20-21.96 169.20-22.96L169.20-22.96Z M193.08-17.64Q195.44-17.64 197.02-16.22Q198.60-14.80 198.64-12.56L198.64-12.56L198.64 0L194.16 0L194.16-10.96Q194.08-12.28 193.38-13.04Q192.68-13.80 191.28-13.84L191.28-13.84Q189.20-13.84 187.86-12.06Q186.52-10.28 186.52-7.52L186.52-7.52L186.52 0L182.04 0L182.04-16.92L186.08-16.92L186.40-13.92Q187.32-15.68 189.06-16.66Q190.80-17.64 193.08-17.64L193.08-17.64Z M221.00-16.92L225.12-16.92L225.12 0.08Q225.12 2.44 223.86 4.34Q222.60 6.24 220.34 7.34Q218.08 8.44 215.24 8.44L215.24 8.44Q212.48 8.44 210.64 7.58Q208.80 6.72 206.92 5.08L206.92 5.08L209.56 2Q210.84 3.20 212.16 3.86Q213.48 4.52 215.16 4.52L215.16 4.52Q217.64 4.52 219.12 3.30Q220.60 2.08 220.64 0L220.64 0L220.64-2.84Q219.76-1.36 218.02-0.46Q216.28 0.44 213.96 0.44L213.96 0.44Q211.64 0.44 209.68-0.74Q207.72-1.92 206.56-3.98Q205.40-6.04 205.40-8.56L205.40-8.56Q205.40-11.12 206.62-13.22Q207.84-15.32 209.86-16.50Q211.88-17.68 214.16-17.68L214.16-17.68Q216.28-17.68 218.02-16.94Q219.76-16.20 220.64-15L220.64-15L221.00-16.92ZM215.28-3.24Q217.24-3.24 218.66-4.20Q220.08-5.16 220.64-6.80L220.64-6.80L220.64-10.48Q220.08-12.08 218.64-13.04Q217.20-14 215.28-14L215.28-14Q213.00-14 211.46-12.50Q209.92-11 209.92-8.68L209.92-8.68Q209.92-7.16 210.64-5.92Q211.36-4.68 212.58-3.96Q213.80-3.24 215.28-3.24L215.28-3.24Z"/></g>
</svg>
</g></svg></svg>